<mxfile host="app.diagrams.net" modified="2024-02-11T10:33:38.359Z" agent="Mozilla/5.0 (Windows NT 10.0; Win64; x64) AppleWebKit/537.36 (KHTML, like Gecko) Chrome/121.0.0.0 Safari/537.36" etag="46SXaHt9L7Mk1TEP09sX" version="22.1.21" type="device">
  <diagram name="Страница — 1" id="Gdg4Oq3OMzs8bkhmjxN4">
    <mxGraphModel dx="1750" dy="883" grid="1" gridSize="10" guides="1" tooltips="1" connect="1" arrows="1" fold="1" page="1" pageScale="1" pageWidth="827" pageHeight="1169" math="0" shadow="0">
      <root>
        <mxCell id="0" />
        <mxCell id="1" parent="0" />
        <mxCell id="URm6Tu1lASQm4hEK9CjK-1" style="edgeStyle=orthogonalEdgeStyle;rounded=0;orthogonalLoop=1;jettySize=auto;html=1;exitX=0.5;exitY=0.5;exitDx=0;exitDy=0;exitPerimeter=0;entryX=1;entryY=0.5;entryDx=0;entryDy=0;fillColor=#fff2cc;strokeColor=#d6b656;strokeWidth=2;" edge="1" parent="1" source="URm6Tu1lASQm4hEK9CjK-2" target="URm6Tu1lASQm4hEK9CjK-17">
          <mxGeometry relative="1" as="geometry">
            <Array as="points">
              <mxPoint x="690" y="200" />
              <mxPoint x="690" y="270" />
            </Array>
          </mxGeometry>
        </mxCell>
        <mxCell id="URm6Tu1lASQm4hEK9CjK-2" value="&lt;b style=&quot;font-size: 14px;&quot;&gt;OLTP&lt;br&gt;&lt;/b&gt;" style="shape=umlActor;verticalLabelPosition=bottom;verticalAlign=top;html=1;outlineConnect=0;" vertex="1" parent="1">
          <mxGeometry x="760" y="170" width="30" height="60" as="geometry" />
        </mxCell>
        <mxCell id="URm6Tu1lASQm4hEK9CjK-27" style="edgeStyle=orthogonalEdgeStyle;rounded=0;orthogonalLoop=1;jettySize=auto;html=1;exitX=0.5;exitY=0.5;exitDx=0;exitDy=0;exitPerimeter=0;entryX=1;entryY=0.5;entryDx=0;entryDy=0;strokeWidth=2;fillColor=#fff2cc;strokeColor=#d6b656;" edge="1" parent="1" source="URm6Tu1lASQm4hEK9CjK-4" target="URm6Tu1lASQm4hEK9CjK-17">
          <mxGeometry relative="1" as="geometry">
            <Array as="points">
              <mxPoint x="690" y="310" />
              <mxPoint x="690" y="270" />
            </Array>
          </mxGeometry>
        </mxCell>
        <mxCell id="URm6Tu1lASQm4hEK9CjK-4" value="&lt;b style=&quot;font-size: 14px;&quot;&gt;OLAP&lt;br&gt;Backup&lt;br&gt;&lt;/b&gt;" style="shape=umlActor;verticalLabelPosition=bottom;verticalAlign=top;html=1;outlineConnect=0;" vertex="1" parent="1">
          <mxGeometry x="760" y="280" width="30" height="60" as="geometry" />
        </mxCell>
        <mxCell id="URm6Tu1lASQm4hEK9CjK-5" value="Zone 1" style="swimlane;horizontal=0;whiteSpace=wrap;html=1;" vertex="1" parent="1">
          <mxGeometry x="10" width="710" height="360" as="geometry" />
        </mxCell>
        <mxCell id="URm6Tu1lASQm4hEK9CjK-6" value="Node 1" style="swimlane;whiteSpace=wrap;html=1;fillColor=#fff2cc;strokeColor=#d6b656;" vertex="1" parent="URm6Tu1lASQm4hEK9CjK-5">
          <mxGeometry x="60" y="40" width="266" height="280" as="geometry" />
        </mxCell>
        <mxCell id="URm6Tu1lASQm4hEK9CjK-7" value="postgres" style="rounded=0;whiteSpace=wrap;html=1;" vertex="1" parent="URm6Tu1lASQm4hEK9CjK-6">
          <mxGeometry x="73" y="50" width="120" height="60" as="geometry" />
        </mxCell>
        <mxCell id="URm6Tu1lASQm4hEK9CjK-8" value="patroni" style="rounded=0;whiteSpace=wrap;html=1;" vertex="1" parent="URm6Tu1lASQm4hEK9CjK-6">
          <mxGeometry x="73" y="130" width="120" height="60" as="geometry" />
        </mxCell>
        <mxCell id="URm6Tu1lASQm4hEK9CjK-9" value="&lt;b&gt;nofailover: false&lt;br&gt;nosynch: false&lt;/b&gt;" style="text;html=1;strokeColor=none;fillColor=none;align=center;verticalAlign=middle;whiteSpace=wrap;rounded=0;" vertex="1" parent="URm6Tu1lASQm4hEK9CjK-6">
          <mxGeometry x="84.5" y="220" width="97" height="30" as="geometry" />
        </mxCell>
        <mxCell id="URm6Tu1lASQm4hEK9CjK-14" value="Node 3" style="swimlane;whiteSpace=wrap;html=1;fillColor=#ffe6cc;strokeColor=#d79b00;" vertex="1" parent="URm6Tu1lASQm4hEK9CjK-5">
          <mxGeometry x="394" y="40" width="266" height="130" as="geometry" />
        </mxCell>
        <mxCell id="URm6Tu1lASQm4hEK9CjK-15" value="etcd" style="rounded=0;whiteSpace=wrap;html=1;" vertex="1" parent="URm6Tu1lASQm4hEK9CjK-14">
          <mxGeometry x="73" y="50" width="120" height="60" as="geometry" />
        </mxCell>
        <mxCell id="URm6Tu1lASQm4hEK9CjK-16" value="Node 4" style="swimlane;whiteSpace=wrap;html=1;fillColor=#f8cecc;strokeColor=#b85450;" vertex="1" parent="URm6Tu1lASQm4hEK9CjK-5">
          <mxGeometry x="390" y="200" width="270" height="120" as="geometry" />
        </mxCell>
        <mxCell id="URm6Tu1lASQm4hEK9CjK-17" value="proxy" style="rounded=0;whiteSpace=wrap;html=1;" vertex="1" parent="URm6Tu1lASQm4hEK9CjK-16">
          <mxGeometry x="73" y="40" width="120" height="60" as="geometry" />
        </mxCell>
        <mxCell id="URm6Tu1lASQm4hEK9CjK-18" style="edgeStyle=orthogonalEdgeStyle;rounded=0;orthogonalLoop=1;jettySize=auto;html=1;exitX=0;exitY=0.5;exitDx=0;exitDy=0;entryX=1;entryY=0.5;entryDx=0;entryDy=0;strokeWidth=2;fillColor=#fff2cc;strokeColor=#d6b656;jumpStyle=arc;" edge="1" parent="URm6Tu1lASQm4hEK9CjK-5" source="URm6Tu1lASQm4hEK9CjK-17" target="URm6Tu1lASQm4hEK9CjK-7">
          <mxGeometry relative="1" as="geometry">
            <Array as="points">
              <mxPoint x="350" y="270" />
              <mxPoint x="350" y="120" />
            </Array>
          </mxGeometry>
        </mxCell>
        <mxCell id="URm6Tu1lASQm4hEK9CjK-19" value="Zone 2" style="swimlane;horizontal=0;whiteSpace=wrap;html=1;" vertex="1" parent="1">
          <mxGeometry x="10" y="360" width="710" height="360" as="geometry" />
        </mxCell>
        <mxCell id="URm6Tu1lASQm4hEK9CjK-20" value="Node 2" style="swimlane;whiteSpace=wrap;html=1;fillColor=#fff2cc;strokeColor=#d6b656;" vertex="1" parent="URm6Tu1lASQm4hEK9CjK-19">
          <mxGeometry x="60" y="50" width="266" height="260" as="geometry" />
        </mxCell>
        <mxCell id="URm6Tu1lASQm4hEK9CjK-21" value="postgres" style="rounded=0;whiteSpace=wrap;html=1;" vertex="1" parent="URm6Tu1lASQm4hEK9CjK-20">
          <mxGeometry x="73" y="50" width="120" height="60" as="geometry" />
        </mxCell>
        <mxCell id="URm6Tu1lASQm4hEK9CjK-22" value="patroni" style="rounded=0;whiteSpace=wrap;html=1;" vertex="1" parent="URm6Tu1lASQm4hEK9CjK-20">
          <mxGeometry x="73" y="130" width="120" height="60" as="geometry" />
        </mxCell>
        <mxCell id="URm6Tu1lASQm4hEK9CjK-23" value="&lt;b&gt;nofailover: false&lt;br&gt;nosynch: false&lt;/b&gt;" style="text;html=1;strokeColor=none;fillColor=none;align=center;verticalAlign=middle;whiteSpace=wrap;rounded=0;" vertex="1" parent="URm6Tu1lASQm4hEK9CjK-20">
          <mxGeometry x="84.5" y="210" width="97" height="30" as="geometry" />
        </mxCell>
        <mxCell id="URm6Tu1lASQm4hEK9CjK-24" style="edgeStyle=orthogonalEdgeStyle;rounded=0;orthogonalLoop=1;jettySize=auto;html=1;exitX=0;exitY=0.5;exitDx=0;exitDy=0;entryX=1;entryY=0.5;entryDx=0;entryDy=0;fillColor=#fff2cc;strokeColor=#d6b656;strokeWidth=2;jumpStyle=arc;" edge="1" parent="1" source="URm6Tu1lASQm4hEK9CjK-17" target="URm6Tu1lASQm4hEK9CjK-21">
          <mxGeometry relative="1" as="geometry">
            <Array as="points">
              <mxPoint x="360" y="270" />
              <mxPoint x="360" y="490" />
            </Array>
          </mxGeometry>
        </mxCell>
      </root>
    </mxGraphModel>
  </diagram>
</mxfile>
